<svg width="61" height="65" viewBox="0 0 61 65" fill="none" xmlns="http://www.w3.org/2000/svg">
<path d="M58.2273 24.375H55.4545C53.9226 24.375 52.6818 25.284 52.6818 26.4062V32.5C52.6818 41.9961 41.506 49.6158 28.2836 48.6713C16.7594 47.8474 8.31818 40.2581 8.31818 31.7764V26.4062C8.31818 25.284 7.07739 24.375 5.54545 24.375H2.77273C1.2408 24.375 0 25.284 0 26.4062V31.5047C0 42.8848 11.0857 53.0296 26.3409 54.5708V58.9062H16.6364C15.1044 58.9062 13.8636 59.8152 13.8636 60.9375V62.9688C13.8636 64.091 15.1044 65 16.6364 65H44.3636C45.8956 65 47.1364 64.091 47.1364 62.9688V60.9375C47.1364 59.8152 45.8956 58.9062 44.3636 58.9062H34.6591V54.619C49.5122 53.1261 61 43.7861 61 32.5V26.4062C61 25.284 59.7592 24.375 58.2273 24.375ZM30.5 44.6875C39.6881 44.6875 47.1364 39.2311 47.1364 32.5H32.3491C31.3284 32.5 30.5 32.0455 30.5 31.4844V29.4531C30.5 28.892 31.3284 28.4375 32.3491 28.4375H47.1364V24.375H32.3491C31.3284 24.375 30.5 23.9205 30.5 23.3594V21.3281C30.5 20.767 31.3284 20.3125 32.3491 20.3125H47.1364V16.25H32.3491C31.3284 16.25 30.5 15.7955 30.5 15.2344V13.2031C30.5 12.642 31.3284 12.1875 32.3491 12.1875H47.1364C47.1364 5.45645 39.6881 0 30.5 0C21.3119 0 13.8636 5.45645 13.8636 12.1875V32.5C13.8636 39.2311 21.3119 44.6875 30.5 44.6875Z" fill="#F8F8F8"/>
</svg>
