<svg width="36" height="33" viewBox="0 0 36 33" fill="none" xmlns="http://www.w3.org/2000/svg">
<path d="M35.0059 13.4058C35.2313 14.5104 35.3541 15.6653 35.3541 16.8704C35.3541 26.2971 28.4566 33 18.039 33C15.6699 33.0007 13.3238 32.5743 11.1349 31.7454C8.94598 30.9164 6.9571 29.701 5.28188 28.1687C3.60666 26.6364 2.27795 24.8172 1.37166 22.8151C0.465377 20.8129 -0.000721489 18.667 8.38274e-07 16.5C-0.000721489 14.333 0.465377 12.1871 1.37166 10.1849C2.27795 8.18277 3.60666 6.36356 5.28188 4.83127C6.9571 3.29897 8.94598 2.08361 11.1349 1.25464C13.3238 0.425674 15.6699 -0.000659937 18.039 7.66758e-07C22.9097 7.66758e-07 26.9797 1.63927 30.1022 4.301L25.0171 8.95231V8.94057C23.1241 7.29124 20.7217 6.44479 18.039 6.44479C12.0871 6.44479 7.24931 11.0441 7.24931 16.4899C7.24931 21.9341 12.0871 26.5435 18.039 26.5435C23.4393 26.5435 27.1153 23.7192 27.8702 19.8406H18.039V13.4058H35.0078H35.0059Z" fill="#18A0FB"/>
</svg>
