<svg width="113" height="219" viewBox="0 0 113 219" fill="none" xmlns="http://www.w3.org/2000/svg">
<path d="M58.2785 181.515C46.7869 181.515 36.4811 179.709 27.3608 176.098C21.3156 173.59 22.5907 194.816 22.5973 207.512C22.6008 214.152 16.8763 219.592 10.3517 218.361C8.80693 218.07 7.68364 216.894 7.50063 214.018L6.8402 202.017L5.963 191.519C5.62258 187.445 3.74762 163.513 7.38741 161.651C14.2087 158.163 33.7906 155.909 55.2365 160.961C57.0787 161.395 58.9652 161.674 60.8559 161.589C69.0007 161.225 75.529 159.268 80.4407 155.718C85.9129 151.762 88.6489 146.775 88.6489 140.756C88.6489 134.564 85.7305 130.007 79.8935 127.083C74.0565 123.987 65.0275 120.978 52.8063 118.054C41.6796 115.302 32.5593 112.551 25.4455 109.799C18.5141 106.875 12.4948 102.662 7.38741 97.1583C2.46247 91.4829 0 84.0877 0 74.9727C0 67.7495 2.28007 61.1282 6.8402 55.1088C11.4003 49.0895 16.5077 43.443 24.8983 40.0033C33.2889 36.3917 42.0444 32.5027 52.8063 32.5027C69.4052 32.5027 82.1925 31.0026 88.6489 36.003C92.9571 39.3397 91.365 24.5864 95.3607 9.15318C96.8369 3.4518 102.294 0 108.184 0C109.39 0 110.62 0.261081 111.033 1.39459C114.72 11.5218 110.832 72.4812 100.012 65.8354C98.8848 65.1433 97.9979 64.0701 96.8144 63.48C88.5284 59.3485 63.1037 55.3668 54.1744 55.3668C45.2365 55.3668 38.1227 57.1726 32.833 60.7842C27.5432 64.3958 24.8983 69.1253 24.8983 74.9727C24.8983 79.6162 26.4488 83.4858 29.5496 86.5814C32.8329 89.5051 36.8459 91.9129 41.5884 93.8047C46.5134 95.5245 53.2623 97.5023 61.8354 99.738C72.5973 102.49 81.3527 105.241 88.1017 107.993C94.8507 110.573 100.596 114.528 105.339 119.86C110.264 125.191 112.818 132.157 113 140.756C113 148.495 110.72 155.46 106.16 161.651C101.6 167.843 95.1243 172.744 86.7337 176.356C78.5254 179.795 69.0404 181.515 58.2785 181.515Z" fill="white"/>
</svg>
