<svg width="64" height="65" viewBox="0 0 64 65" fill="none" xmlns="http://www.w3.org/2000/svg">
<path d="M32 24.375C27.664 24.375 24 28.0962 24 32.5C24 36.9037 27.664 40.625 32 40.625C36.336 40.625 40 36.9037 40 32.5C40 28.0962 36.336 24.375 32 24.375Z" fill="#F8F8F8"/>
<path d="M53.3334 13.5417H46.4374L39.2187 6.21021C38.9715 5.95822 38.6776 5.75838 38.3541 5.62219C38.0305 5.486 37.6836 5.41615 37.3334 5.41667H26.6667C26.3165 5.41615 25.9696 5.486 25.646 5.62219C25.3224 5.75838 25.0286 5.95822 24.7814 6.21021L17.5627 13.5417H10.6667C7.72537 13.5417 5.33337 15.971 5.33337 18.9583V48.75C5.33337 51.7373 7.72537 54.1667 10.6667 54.1667H53.3334C56.2747 54.1667 58.6667 51.7373 58.6667 48.75V18.9583C58.6667 15.971 56.2747 13.5417 53.3334 13.5417ZM32 46.0417C24.7734 46.0417 18.6667 39.8396 18.6667 32.5C18.6667 25.1604 24.7734 18.9583 32 18.9583C39.2267 18.9583 45.3334 25.1604 45.3334 32.5C45.3334 39.8396 39.2267 46.0417 32 46.0417Z" fill="#F8F8F8"/>
</svg>
